<svg id="Layer_1" data-name="Layer 1" xmlns="http://www.w3.org/2000/svg" xmlns:xlink="http://www.w3.org/1999/xlink" viewBox="0 0 153.69 157.19"><defs><style>.cls-1{fill:url(#Silver);}.cls-2{fill:url(#Silver-2);}.cls-3{fill:url(#Silver-3);}.cls-4{fill:url(#Silver-4);}.cls-5{fill:url(#Silver-5);}.cls-6{fill:url(#Silver-6);}</style><linearGradient id="Silver" y1="39.25" x2="76.84" y2="39.25" gradientUnits="userSpaceOnUse"><stop offset="0" stop-color="#e5e2df"/><stop offset="0" stop-color="#ded9d6"/><stop offset="0.06" stop-color="#cfcac9"/><stop offset="0.18" stop-color="#a8a4a7"/><stop offset="0.26" stop-color="#8b878d"/><stop offset="0.52" stop-color="#f3f4f4"/><stop offset="0.58" stop-color="#e5e5e6"/><stop offset="0.7" stop-color="#c0bec0"/><stop offset="0.86" stop-color="#858085"/><stop offset="0.88" stop-color="#807b80"/><stop offset="1" stop-color="#d1d3d4"/><stop offset="1" stop-color="#a7a9ac"/></linearGradient><linearGradient id="Silver-2" y1="78.5" x2="153.69" y2="78.5" xlink:href="#Silver"/><linearGradient id="Silver-3" x1="83.76" y1="122.16" x2="153.69" y2="122.16" xlink:href="#Silver"/><linearGradient id="Silver-4" x1="19.88" y1="78.5" x2="153.69" y2="78.5" xlink:href="#Silver"/><linearGradient id="Silver-5" x1="94.04" y1="122.12" x2="153.69" y2="122.12" xlink:href="#Silver"/><linearGradient id="Silver-6" x1="23.02" y1="31.02" x2="76.24" y2="31.02" xlink:href="#Silver"/></defs><polygon class="cls-1" points="0 0 23.02 0 42.49 0 76.84 48.83 56.9 78.5 0 0"/><polygon class="cls-2" points="110.24 0 0 155.53 41.47 157.01 153.69 0 110.24 0"/><polygon class="cls-3" points="83.76 115.49 103.96 87.13 153.69 157.01 111.73 157.19 83.76 115.49"/><polygon class="cls-4" points="130.99 0 19.88 156.24 41.47 157.01 153.69 0 130.99 0"/><polygon class="cls-5" points="94.04 101.07 132.27 157.1 153.69 157.01 103.96 87.13 94.04 101.07"/><polygon class="cls-6" points="66.27 62.04 23.02 0 42.49 0 76.24 47.97 66.27 62.04"/></svg>